<svg width="70" height="70" viewBox="0 0 70 70" fill="none" xmlns="http://www.w3.org/2000/svg">
<g clip-path="url(#clip0)">
<path d="M31.1629 31.4495H29.5522C28.2265 31.4495 27.1478 32.5281 27.1478 33.8538V61.9116C27.1478 63.2373 28.2263 64.3159 29.5522 64.3159H31.1629C32.4886 64.3159 33.5672 63.2373 33.5672 61.9116V33.8538C33.5672 32.5281 32.4887 31.4495 31.1629 31.4495ZM31.5155 61.9116C31.5155 62.1061 31.3574 62.2642 31.1629 62.2642H29.5522C29.3578 62.2642 29.1995 62.1061 29.1995 61.9116V33.8538C29.1995 33.6593 29.3577 33.5012 29.5522 33.5012H31.1629C31.3573 33.5012 31.5155 33.6593 31.5155 33.8538V61.9116Z" fill="#E5CB9F"/>
<path d="M22.5038 38.3755C21.9372 38.3755 21.4779 38.8347 21.4779 39.4014V61.9117C21.4779 62.1061 21.3198 62.2642 21.1253 62.2642H19.5146C19.3202 62.2642 19.1619 62.1061 19.1619 61.9117V39.147C19.1619 38.5803 18.7026 38.1211 18.1361 38.1211C17.5695 38.1211 17.1102 38.5803 17.1102 39.147V61.9117C17.1102 63.2374 18.1887 64.3159 19.5146 64.3159H21.1253C22.451 64.3159 23.5296 63.2374 23.5296 61.9117V39.4014C23.5296 38.8347 23.0703 38.3755 22.5038 38.3755Z" fill="#E5CB9F"/>
<path d="M41.3375 31.4496H39.7267C38.401 31.4496 37.3225 32.5281 37.3225 33.8538V42.628C37.3225 43.1947 37.7817 43.6539 38.3484 43.6539C38.9151 43.6539 39.3742 43.1947 39.3742 42.628V33.8538C39.3742 33.6594 39.5323 33.5013 39.7267 33.5013H41.3375C41.532 33.5013 41.6901 33.6594 41.6901 33.8538V61.9117C41.6901 62.1061 41.532 62.2642 41.3375 62.2642H39.7267C39.5323 62.2642 39.3742 62.1061 39.3742 61.9117V46.9998C39.3742 46.4332 38.9151 45.974 38.3484 45.974C37.7817 45.974 37.3225 46.4332 37.3225 46.9998V61.9117C37.3225 63.2374 38.401 64.3159 39.7267 64.3159H41.3375C42.6631 64.3159 43.7418 63.2374 43.7418 61.9117V33.8538C43.7418 32.5281 42.6631 31.4496 41.3375 31.4496Z" fill="#E5CB9F"/>
<path d="M54.9487 23.2974H48.9584V21.0376C50.5504 20.1572 51.6311 18.461 51.6311 16.5166C51.6311 15.1374 51.0939 13.8408 50.1188 12.8656C49.1436 11.8904 47.847 11.3533 46.4679 11.3534H44.9493V10.767C44.9493 7.92005 42.6331 5.60379 39.7861 5.60379H36.6767C36.3347 2.45728 33.6619 0 30.426 0C27.1902 0 24.5173 2.45728 24.1754 5.60379H21.0659C18.219 5.60379 15.9027 7.92005 15.9027 10.767V11.3534H14.3842C11.5372 11.3534 9.22083 13.6696 9.22083 16.5166C9.22083 18.4047 10.2401 20.0586 11.7569 20.959V63.2441C11.7569 66.9692 14.7875 70 18.5127 70H42.2026C45.9277 70 48.9585 66.9693 48.9585 63.2441V56.7071H54.9489C58.1638 56.7071 60.7792 54.0917 60.7792 50.8767V29.1277C60.779 25.9128 58.1636 23.2974 54.9487 23.2974ZM14.3842 13.4051H16.9286C17.4951 13.4051 17.9544 12.9459 17.9544 12.3793V10.767C17.9544 9.05136 19.3503 7.65551 21.0659 7.65551H24.8222C25.5766 7.65551 26.1902 7.04191 26.1902 6.28756C26.1902 3.95188 28.0903 2.05172 30.426 2.05172C32.7617 2.05172 34.6619 3.95188 34.6619 6.28756C34.6619 7.04191 35.2756 7.65551 36.03 7.65551H39.7862C41.5019 7.65551 42.8977 9.05136 42.8977 10.767V12.3793C42.8977 12.9459 43.3569 13.4051 43.9236 13.4051H46.468C47.2991 13.4051 48.0805 13.7286 48.6681 14.3163C49.2559 14.9041 49.5795 15.6855 49.5795 16.5166C49.5795 18.2323 48.1837 19.6281 46.468 19.6281H29.8231C27.8689 19.6281 26.0318 20.389 24.65 21.7708C23.2683 23.1527 22.5072 24.9898 22.5072 26.9439V32.7048C22.5072 33.7009 21.6969 34.5111 20.7009 34.5111C19.7048 34.5111 18.8945 33.7009 18.8945 32.7048V21.8824C18.8945 20.6393 17.8832 19.6281 16.6401 19.6281H14.384C12.6684 19.6281 11.2725 18.2323 11.2725 16.5166C11.2725 14.801 12.6684 13.4051 14.3842 13.4051ZM14.384 21.6798H16.6401C16.7519 21.6798 16.8428 21.7708 16.8428 21.8824V25.0207H13.8086V21.647C13.9976 21.6681 14.1895 21.6798 14.384 21.6798ZM42.2026 67.9483H18.5127C15.9189 67.9483 13.8086 65.838 13.8086 63.2441V27.0726H16.8428V32.7049C16.8428 34.8323 18.5735 36.563 20.7009 36.563C22.8282 36.563 24.5589 34.8323 24.5589 32.7049V27.0726H38.3461C38.9128 27.0726 39.3719 26.6134 39.3719 26.0467C39.3719 25.48 38.9128 25.0208 38.3461 25.0208H24.9213C25.1824 24.3546 25.5795 23.7429 26.1007 23.2218C27.095 22.2274 28.417 21.68 29.823 21.68H46.4679C46.6157 21.68 46.7618 21.6723 46.9067 21.66V25.021H42.7179C42.1512 25.021 41.692 25.4802 41.692 26.0468C41.692 26.6135 42.1512 27.0727 42.7179 27.0727H46.9067V63.2442C46.9067 65.838 44.7965 67.9483 42.2026 67.9483ZM58.7273 50.8767C58.7273 52.9602 57.0322 54.6553 54.9487 54.6553H48.9584V52.33H54.9487C55.75 52.33 56.402 51.678 56.402 50.8767V38.3316C56.402 37.7649 55.9428 37.3057 55.3762 37.3057C54.8095 37.3057 54.3503 37.7649 54.3503 38.3316V50.2783H48.9584V29.7261H54.3503V33.9598C54.3503 34.5265 54.8095 34.9856 55.3762 34.9856C55.9428 34.9856 56.402 34.5265 56.402 33.9598V29.1277C56.402 28.3264 55.75 27.6744 54.9487 27.6744H48.9584V25.3491H54.9487C57.0322 25.3491 58.7273 27.0443 58.7273 29.1277V50.8767Z" fill="#E5CB9F"/>
</g>
<defs>
<clipPath id="clip0">
<rect width="70" height="70" fill="white"/>
</clipPath>
</defs>
</svg>
