<svg width="70" height="70" viewBox="0 0 70 70" fill="none" xmlns="http://www.w3.org/2000/svg">
<path d="M57.1267 0C50.4923 0 45.0149 5.04696 44.33 11.5035H35.3856C34.6305 11.5035 34.0184 12.1156 34.0184 12.8707C34.0184 13.6258 34.6305 14.2379 35.3856 14.2379H53.8262L45.8019 22.2652C44.3127 23.1006 41.8311 23.0803 40.3996 22.1982C38.0452 20.7502 34.36 20.7505 32.0109 22.1982C30.5386 23.1038 27.9554 23.1036 26.4842 22.1988C24.9621 21.2608 22.88 20.9311 20.9618 21.208L15.846 14.238H23.1083C23.8634 14.238 24.4755 13.6259 24.4755 12.8708C24.4755 12.1157 23.8634 11.5036 23.1083 11.5036H13.8389L6.48827 1.48845C6.04134 0.879784 5.18589 0.74826 4.57708 1.19519C3.96841 1.64199 3.83702 2.49757 4.28382 3.10638L10.4471 11.5035H1.36734C0.814452 11.5035 0.315977 11.8365 0.104336 12.3473C-0.107304 12.8581 0.00959051 13.4461 0.400469 13.8371L10.8845 24.3245C10.8981 24.3384 10.9112 24.3524 10.9256 24.3657L19.73 33.173L22.4864 39.6351C23.2288 41.3755 24.1688 42.4542 26.5574 42.4542H27.8798V58.4776L15.9376 67.5439C15.4701 67.8988 15.2813 68.5125 15.4685 69.069C15.6557 69.6254 16.1772 70 16.7643 70H41.7258C42.3128 70 42.8342 69.6254 43.0216 69.069C43.2089 68.5126 43.0201 67.8989 42.5527 67.544L30.6142 58.4778V42.4542H31.9365C34.3251 42.4542 35.265 41.3755 36.0076 39.6351L38.7638 33.1731L47.5682 24.366C47.5826 24.3527 47.5958 24.3385 47.6095 24.3245L49.0433 22.8904C51.3237 24.7399 54.1467 25.7455 57.1265 25.7455C64.2248 25.7455 69.9997 19.9699 69.9997 12.8708C70 5.77376 64.2252 0 57.1267 0V0ZM12.692 22.2652L4.66732 14.2379H12.4543L18.2359 22.1152C18.1882 22.1428 18.1401 22.17 18.0933 22.1987C16.6629 23.0803 14.1813 23.1006 12.692 22.2652ZM37.665 67.2655H20.8263L29.247 60.8728L37.665 67.2655ZM33.4926 38.5621C33.0449 39.6116 32.8995 39.7197 31.9366 39.7197H26.5576C25.5947 39.7197 25.4492 39.6115 25.0016 38.5621L22.9535 33.7604H35.5407L33.4926 38.5621ZM37.0438 31.0262H21.4503L16.0133 25.5874C17.2892 25.495 18.5288 25.1423 19.5267 24.5272C20.9994 23.6214 23.5801 23.6211 25.0507 24.5272C27.4037 25.9743 31.0902 25.9742 33.4444 24.5265C34.9137 23.6211 37.4945 23.6214 38.9663 24.5265C39.9649 25.1418 41.2046 25.4949 42.4808 25.5874L37.0438 31.0262ZM47.0837 11.5035C47.3239 9.72916 48.0265 8.10057 49.0634 6.73995L53.8264 11.5035H47.0837ZM55.7596 22.9185C54.0187 22.6853 52.3837 22.0095 50.9897 20.9435L55.7596 16.1722V22.9185ZM55.7596 9.56975L50.997 4.80661C52.3575 3.76988 53.9859 3.06755 55.7596 2.82734V9.56975ZM67.1721 11.5035H60.4271L65.1922 6.7379C66.2301 8.09893 66.9312 9.72902 67.1721 11.5035ZM58.4939 2.82912C60.2679 3.06933 61.8974 3.76851 63.2582 4.80497L58.4939 9.56975V2.82912ZM58.4939 22.9162V16.1717L63.258 20.9364C61.897 21.9731 60.2683 22.6759 58.4939 22.9162ZM65.1922 19.0035L60.4271 14.2379H67.1721C66.9312 16.0126 66.2299 17.6426 65.1922 19.0035Z" fill="#E5CB9F"/>
<path d="M29.2471 14.2378H29.2548C30.0099 14.2378 30.6182 13.6257 30.6182 12.8706C30.6182 12.1156 30.0023 11.5035 29.2472 11.5035C28.4921 11.5035 27.88 12.1156 27.88 12.8706C27.88 13.6257 28.492 14.2378 29.2471 14.2378Z" fill="#E5CB9F"/>
</svg>
