<svg width="54" height="70" viewBox="0 0 54 70" fill="none" xmlns="http://www.w3.org/2000/svg">
<path d="M19.2651 39.8525C18.6988 39.8525 18.2397 40.3115 18.2397 40.8779V48.2102C18.2397 48.7766 18.6988 49.2355 19.2651 49.2355C19.8314 49.2355 20.2905 48.7766 20.2905 48.2102V40.8779C20.2905 40.3116 19.8314 39.8525 19.2651 39.8525Z" fill="#E5CB9F"/>
<path d="M12.1034 39.8525C11.5371 39.8525 11.078 40.3115 11.078 40.8779V48.2102C11.078 48.7766 11.5371 49.2355 12.1034 49.2355C12.6697 49.2355 13.1288 48.7766 13.1288 48.2102V40.8779C13.1288 40.3116 12.6697 39.8525 12.1034 39.8525Z" fill="#E5CB9F"/>
<path d="M26.4263 39.8525C25.86 39.8525 25.4009 40.3115 25.4009 40.8779V48.2102C25.4009 48.7766 25.86 49.2355 26.4263 49.2355C26.9926 49.2355 27.4516 48.7766 27.4516 48.2102V40.8779C27.4517 40.3116 26.9926 39.8525 26.4263 39.8525Z" fill="#E5CB9F"/>
<path d="M33.5879 49.2355C34.1543 49.2355 34.6133 48.7766 34.6133 48.2102V40.8779C34.6133 40.3115 34.1543 39.8525 33.5879 39.8525C33.0215 39.8525 32.5625 40.3115 32.5625 40.8779V48.2102C32.5625 48.7764 33.0216 49.2355 33.5879 49.2355Z" fill="#E5CB9F"/>
<path d="M40.7496 49.2355C41.3161 49.2355 41.775 48.7766 41.775 48.2102V40.8779C41.775 40.3115 41.3161 39.8525 40.7496 39.8525C40.1832 39.8525 39.7242 40.3115 39.7242 40.8779V48.2102C39.7242 48.7764 40.1832 49.2355 40.7496 49.2355Z" fill="#E5CB9F"/>
<path d="M16.2947 25.3726C16.2947 24.8061 15.8356 24.3472 15.2693 24.3472C14.7031 24.3472 14.244 24.8061 14.244 25.3726V25.3764C14.244 25.9428 14.7031 26.3999 15.2693 26.3999C15.8356 26.3999 16.2947 25.9388 16.2947 25.3726Z" fill="#E5CB9F"/>
<path d="M14.0668 22.7222C14.0668 22.1557 13.6077 21.6968 13.0414 21.6968C12.4751 21.6968 12.016 22.1557 12.016 22.7222V22.726C12.016 23.2924 12.4751 23.7495 13.0414 23.7495C13.6077 23.7496 14.0668 23.2886 14.0668 22.7222Z" fill="#E5CB9F"/>
<path d="M11.8343 25.3726C11.8343 24.8061 11.3752 24.3472 10.8089 24.3472C10.2426 24.3472 9.78351 24.8061 9.78351 25.3726V25.3764C9.78351 25.9428 10.2426 26.3999 10.8089 26.3999C11.3752 26.3999 11.8343 25.9388 11.8343 25.3726Z" fill="#E5CB9F"/>
<path d="M25.636 11.291C25.0697 11.291 24.6106 11.75 24.6106 12.3164V12.3202C24.6106 12.8867 25.0697 13.3436 25.636 13.3436C26.2023 13.3436 26.6614 12.8827 26.6614 12.3163C26.6612 11.75 26.2023 11.291 25.636 11.291Z" fill="#E5CB9F"/>
<path d="M23.4035 8.64014C22.8372 8.64014 22.3781 9.0991 22.3781 9.66553V9.66936C22.3781 10.2358 22.8372 10.6927 23.4035 10.6927C23.9698 10.6927 24.4289 10.2318 24.4289 9.66539C24.4289 9.09924 23.9698 8.64014 23.4035 8.64014Z" fill="#E5CB9F"/>
<path d="M21.1755 11.291C20.6092 11.291 20.1501 11.75 20.1501 12.3164V12.3202C20.1501 12.8867 20.6092 13.3436 21.1755 13.3436C21.7418 13.3436 22.2009 12.8827 22.2009 12.3163C22.2009 11.75 21.7418 11.291 21.1755 11.291Z" fill="#E5CB9F"/>
<path d="M51.5809 30.3503H49.8902C49.9664 29.7848 50.006 29.2143 50.006 28.6435C50.006 24.1707 47.6833 20.2305 44.1811 17.9646L46.8823 13.9928C46.8846 13.9894 46.8869 13.9861 46.8893 13.9827L52.7866 5.31092C53.0225 4.96256 53.1086 4.54297 53.0293 4.12912C52.9499 3.71432 52.7138 3.35598 52.367 3.12123L48.1795 0.271328C47.8313 0.0356251 47.4115 -0.0505077 46.9978 0.0286525C46.583 0.108086 46.2247 0.344199 45.9895 0.691465L40.2934 9.0715C40.2677 9.10445 40.2445 9.13918 40.223 9.175L38.6215 11.5311C37.9972 10.0816 37.1114 8.75514 35.9859 7.61258C33.6234 5.21385 30.432 3.89287 27 3.89287C20.1381 3.89287 14.5298 9.35766 14.2989 16.1623C11.99 16.605 9.84108 17.6816 8.08657 19.3022C7.67053 19.6865 7.64483 20.3352 8.02914 20.7513C8.41346 21.1673 9.06219 21.193 9.47809 20.8088C11.4498 18.9874 14.0158 17.9845 16.7034 17.9845C22.5783 17.9845 27.3582 22.7659 27.3582 28.6435C27.3582 29.2226 27.3118 29.7937 27.2223 30.3503H6.18262C6.09198 29.7864 6.04495 29.2152 6.04495 28.6435C6.04495 27.0921 6.37047 25.5989 7.01278 24.205C7.24971 23.6906 7.02481 23.0816 6.51047 22.8447C5.99627 22.6075 5.38706 22.8325 5.15012 23.3469C4.38313 25.0117 3.99416 26.7938 3.99416 28.6435C3.99416 29.2144 4.03381 29.7849 4.10997 30.3503H2.41903C1.14208 30.3503 0.103149 31.3892 0.103149 32.666V35.3323C0.103149 36.2409 0.630337 37.0267 1.39364 37.4058V45.1138C1.39364 50.3613 5.66254 54.6302 10.9098 54.6302H23.1185V60.7953H17.556C15.0204 60.7953 12.9576 62.8599 12.9576 65.3977V68.4128C12.9576 69.288 13.6678 70.0001 14.5409 70.0001H38.308C39.1832 70.0001 39.8953 69.288 39.8953 68.4128V65.3977C39.8953 62.8601 37.8306 60.7953 35.2929 60.7953H29.7304V54.6302H41.9431C47.1881 54.6302 51.4553 50.3613 51.4553 45.1138V37.6482H51.5809C52.8579 37.6482 53.8966 36.6093 53.8966 35.3323V32.666C53.8966 31.3891 52.8579 30.3503 51.5809 30.3503ZM47.42 2.23488L49.3562 3.55272L46.3049 3.87551L47.42 2.23488ZM44.7946 6.09719L50.1574 5.52994L48.5604 7.87822L43.1973 8.44711L44.7946 6.09719ZM41.6866 10.6697L47.0488 10.1009L45.4504 12.4512L40.0908 13.0175L41.6866 10.6697ZM43.9394 14.673L42.3643 16.989C41.514 16.6178 40.6156 16.3371 39.6812 16.159C39.6642 15.8138 39.6355 15.4712 39.5935 15.1321L43.9394 14.673ZM47.9553 28.6433C47.9553 29.215 47.9084 29.7862 47.8176 30.3501H29.2945C29.3696 29.7897 29.4088 29.2193 29.4088 28.6433C29.4088 26.679 28.9608 24.8174 28.1619 23.155C30.0894 19.9532 33.5422 17.9843 37.2965 17.9843C43.1738 17.9845 47.9553 22.7659 47.9553 28.6433ZM26.9961 21.2011C24.6855 18.0121 20.9328 15.9337 16.7034 15.9337C16.5898 15.9337 16.4769 15.9386 16.3637 15.9416C16.7045 10.3714 21.3438 5.94365 27 5.94365C29.8786 5.94365 32.5509 7.04738 34.525 9.05154C36.3374 10.8916 37.4126 13.3057 37.6132 15.9377C37.5079 15.9351 37.4023 15.9337 37.2965 15.9337C33.1812 15.9337 29.3696 17.9164 26.9961 21.2011ZM37.8446 65.3976V67.9492H15.0082V65.3976C15.0082 63.9906 16.1511 62.846 17.5558 62.846H35.2929C36.7 62.846 37.8446 63.9906 37.8446 65.3976ZM27.6797 60.7952H25.1693V54.63H27.6797V60.7952ZM51.846 35.3323C51.846 35.476 51.7246 35.5974 51.581 35.5974H28.368C27.8015 35.5974 27.3426 36.0564 27.3426 36.6228C27.3426 37.1892 27.8015 37.6482 28.368 37.6482H49.4045V45.1137C49.4045 49.2302 46.0573 52.5792 41.9431 52.5792H10.9098C6.79334 52.5792 3.44442 49.2302 3.44442 45.1137V37.6482H23.6323C24.1986 37.6482 24.6577 37.1892 24.6577 36.6228C24.6577 36.0564 24.1986 35.5974 23.6323 35.5974H2.41903C2.27534 35.5974 2.15393 35.4759 2.15393 35.3323V32.666C2.15393 32.5223 2.27534 32.4011 2.41903 32.4011H28.0582C28.0597 32.4011 28.0612 32.4013 28.0627 32.4013C28.0638 32.4013 28.0647 32.4011 28.0658 32.4011H51.581C51.7247 32.4011 51.846 32.5225 51.846 32.666V35.3323Z" fill="#E5CB9F"/>
<path d="M36.2124 25.3727V25.3765C36.2124 25.9429 36.6714 26.4 37.2378 26.4C37.8042 26.4 38.2632 25.939 38.2632 25.3726C38.2632 24.8061 37.8042 24.3472 37.2378 24.3472C36.6714 24.3472 36.2124 24.8063 36.2124 25.3727Z" fill="#E5CB9F"/>
<path d="M35.0092 21.6968C34.4428 21.6968 33.9838 22.1557 33.9838 22.7222V22.726C33.9838 23.2924 34.4428 23.7495 35.0092 23.7495C35.5756 23.7495 36.0346 23.2885 36.0346 22.722C36.0346 22.1557 35.5755 21.6968 35.0092 21.6968Z" fill="#E5CB9F"/>
<path d="M32.7773 24.3472C32.2109 24.3472 31.752 24.8061 31.752 25.3726V25.3764C31.752 25.9428 32.2109 26.3999 32.7773 26.3999C33.3438 26.3999 33.8027 25.9388 33.8027 25.3724C33.8027 24.8061 33.3436 24.3472 32.7773 24.3472Z" fill="#E5CB9F"/>
</svg>
