<svg width="80" height="80" viewBox="0 0 80 80" fill="none" xmlns="http://www.w3.org/2000/svg">
<path d="M45.0428 18.141C44.9825 17.7073 44.9778 17.2667 45.0294 16.8313C45.1055 16.1887 44.6458 15.6059 44.0033 15.5299C43.3605 15.454 42.7778 15.9134 42.7017 16.556C42.6267 17.1901 42.6333 17.8321 42.7212 18.4643C42.8105 19.1054 43.4025 19.5526 44.0436 19.4634C44.3061 19.4268 44.5361 19.306 44.7101 19.132C44.9611 18.8812 45.0955 18.5196 45.0428 18.141Z" fill="#E5CB9F"/>
<path d="M27.024 27.955C26.6232 27.4467 25.8863 27.3595 25.378 27.7603C24.8766 28.1556 24.4273 28.6142 24.0424 29.1235C23.6523 29.6396 23.7546 30.3746 24.271 30.7648C24.4826 30.9245 24.7305 31.0018 24.9766 31.0018C25.3315 31.0018 25.6821 30.8412 25.9126 30.5364C26.1766 30.1868 26.4852 29.872 26.8293 29.6007C27.3376 29.2001 27.4248 28.4631 27.024 27.955Z" fill="#E5CB9F"/>
<path d="M24.8883 33.5906C24.8883 33.371 24.9025 33.15 24.9306 32.9335C25.0137 32.2917 24.5608 31.7039 23.9189 31.6208C23.2775 31.5371 22.6892 31.9906 22.6061 32.6325C22.5652 32.9483 22.5444 33.2706 22.5444 33.5906C22.5444 33.9081 22.5648 34.228 22.605 34.5411C22.6812 35.1322 23.1855 35.5638 23.7662 35.5638C23.8159 35.5638 23.8664 35.5605 23.917 35.5541C24.5589 35.4716 25.0125 34.8842 24.93 34.2424C24.9023 34.0278 24.8883 33.8086 24.8883 33.5906Z" fill="#E5CB9F"/>
<path d="M35.8954 29.1296C35.511 28.6197 35.0621 28.1605 34.561 27.7649C34.0532 27.3636 33.3162 27.45 32.915 27.958C32.5139 28.466 32.6004 29.203 33.1084 29.6041C33.4521 29.8757 33.7601 30.1907 34.0239 30.5407C34.2542 30.8463 34.6053 31.0071 34.9606 31.0071C35.2062 31.0071 35.4539 30.93 35.6651 30.7708C36.1818 30.3811 36.2849 29.6464 35.8954 29.1296Z" fill="#E5CB9F"/>
<path d="M37.3282 32.64C37.2457 31.9981 36.6579 31.5449 36.0163 31.6271C35.3743 31.7096 34.9209 32.2967 35.0034 32.9388C35.031 33.1533 35.0449 33.3725 35.0449 33.5905C35.0449 33.8102 35.0307 34.0311 35.0026 34.2477C34.9194 34.8894 35.3724 35.4772 36.0143 35.5603C36.0654 35.5669 36.116 35.5702 36.1663 35.5702C36.7466 35.5702 37.2505 35.1394 37.3271 34.5486C37.368 34.2328 37.3888 33.9105 37.3888 33.5905C37.3888 33.273 37.3683 32.9531 37.3282 32.64Z" fill="#E5CB9F"/>
<path d="M66.0619 23.5701H61.3743C59.4357 23.5701 57.8585 25.1473 57.8585 27.0858C57.8585 29.0243 59.4359 30.6015 61.3743 30.6015C62.0216 30.6015 62.5462 30.0769 62.5462 29.4296C62.5462 28.7823 62.0216 28.2577 61.3743 28.2577C60.728 28.2577 60.2024 27.7321 60.2024 27.0858C60.2024 26.4396 60.728 25.9138 61.3743 25.9138H66.0619C66.7082 25.9138 67.2338 26.4396 67.2338 27.0858C67.2338 27.7321 66.7082 28.2577 66.0619 28.2577C65.4146 28.2577 64.8901 28.7823 64.8901 29.4296C64.8901 30.0769 65.4146 30.6015 66.0619 30.6015C68.0005 30.6015 69.5777 29.0243 69.5777 27.0858C69.5777 25.1473 68.0005 23.5701 66.0619 23.5701Z" fill="#E5CB9F"/>
<path d="M72.4367 18.6117C72.2491 18.6117 69.9452 19.2921 68.6866 17.8305C65.5891 14.4091 59.5006 15.0775 57.2205 19.1619C57.2205 19.1635 57.2205 19.1635 57.2189 19.165C56.7039 20.0728 55.7275 20.5466 54.7217 20.4294L43.1985 8.9066C42.7407 8.4491 41.9988 8.4491 41.541 8.9066C40.1874 10.5202 39.1743 11.405 38.4065 14.1835C38.4065 14.1836 38.4063 14.1839 38.4063 14.1841C36.5026 13.5752 34.4624 13.73 32.7701 14.605L30.1702 12.005C28.7996 10.6346 26.569 10.6346 25.198 12.005C24.4237 12.7794 24.0874 13.828 24.1881 14.8411C21.5191 14.8252 18.9085 16.2508 17.6229 18.6524C17.419 19.0333 17.1737 19.3594 16.8938 19.6217C16.4217 20.0644 16.3978 20.806 16.8404 21.2783C17.2832 21.7503 18.0248 21.7742 18.497 21.3317C18.9632 20.8944 19.3645 20.3652 19.6893 19.7586C20.8167 17.6524 23.5854 16.6352 25.8605 17.4919C27.0345 17.9321 27.9891 16.4535 27.102 15.5663L26.8555 15.32C26.3985 14.863 26.3985 14.1194 26.8554 13.6627C27.3124 13.2058 28.0559 13.2058 28.5129 13.6627C32.0949 17.2446 32.168 17.1549 32.168 17.806C32.168 18.8578 30.8968 19.3611 30.1704 18.6347C29.7127 18.1771 28.9707 18.1769 28.513 18.6346C28.0552 19.0922 28.0552 19.8342 28.5129 20.2917C29.1749 20.9539 30.0579 21.3186 30.999 21.3186C32.9457 21.3186 34.5118 19.7531 34.5118 17.806C34.5118 17.3514 34.4249 16.9111 34.2622 16.5021C35.4115 16.0535 36.7732 16.0505 38.0007 16.5239C37.6207 21.6095 40.4202 26.2152 44.7824 28.327C44.4019 28.9731 43.7699 29.3894 43.1324 29.5039L43.1183 29.5072C42.5724 29.6147 42.043 29.7917 41.5388 30.0289C40.014 25.085 35.4044 21.4813 29.9666 21.4813C24.6504 21.4813 20.1268 24.9258 18.5018 29.6991C18.4673 29.4567 18.3582 29.223 18.1717 29.0366C17.5095 28.3745 16.6265 28.0098 15.6856 28.0098C14.7445 28.0098 13.8617 28.3745 13.1996 29.0366L9.88464 32.3512C8.51402 33.722 8.51402 35.9525 9.8848 37.3231C10.1137 37.5519 10.4137 37.6662 10.7135 37.6662C11.0134 37.6662 11.3134 37.5519 11.5423 37.3231C11.9999 36.8653 11.9999 36.1234 11.5423 35.6658C11.0853 35.2089 11.0853 34.4653 11.542 34.0086L14.857 30.6939C15.0765 30.4745 15.3707 30.3536 15.6856 30.3536C16.0004 30.3536 16.2946 30.4744 16.5142 30.6941C16.972 31.1516 17.7138 31.1516 18.1715 30.6941C18.1895 30.6761 18.2056 30.657 18.222 30.6381C17.9842 31.5836 17.8563 32.5725 17.8563 33.5908C17.8563 35.0872 18.1323 36.5192 18.6317 37.8428H8.39402C6.66855 37.1315 5.85871 35.5167 6.03668 33.975C6.16793 32.8631 5.83996 31.2605 3.53028 29.9372C3.06372 29.6719 2.68747 29.2659 2.49372 28.8141C1.81669 27.2725 3.57106 25.8945 5.1859 26.2636C7.0834 26.6811 8.69214 26.2661 9.70808 25.1059C10.9481 23.7258 13.5535 24.0084 14.4782 25.6733C14.7923 26.2392 15.5057 26.4436 16.0717 26.1289C16.6376 25.8149 16.8415 25.1014 16.5274 24.5356C14.8276 21.4739 10.2909 20.951 7.95496 23.5506C7.39496 24.1899 6.41418 24.1341 5.69762 23.9764C3.93903 23.5763 2.06981 24.2041 0.937626 25.575C-0.827839 27.7131 0.0404406 30.6487 2.36856 31.9727C3.81512 32.8014 3.73543 33.478 3.70887 33.7031C3.52934 35.2581 3.98575 36.8553 4.93949 38.0883C3.78918 38.4356 2.76825 39.1411 2.01419 40.1375C0.896845 41.6134 0.544658 43.4825 1.04763 45.2656C3.1134 52.5878 8.69433 58.9723 16.7945 63.3024C16.9662 65.4607 17.9195 67.4618 19.5048 68.9726C21.172 70.5615 23.3532 71.4365 25.6466 71.4365H53.3546C55.6478 71.4365 57.8291 70.5615 59.4964 68.9726C61.0813 67.4621 62.0347 65.4617 62.2066 63.3045C70.2953 58.981 75.8726 52.6061 77.9454 45.2937C78.4542 43.499 78.1029 41.6187 76.9819 40.1356C75.8801 38.6784 74.2072 37.8426 72.392 37.8426H49.2708C50.1414 34.8283 52.9014 32.6869 56.1502 32.6869H56.1564C58.3705 32.6869 60.4284 33.6931 61.8019 35.4462C62.0253 35.7322 62.3628 35.8962 62.7269 35.8962C62.9894 35.8962 63.2392 35.8103 63.447 35.6478C63.9566 35.2494 64.0472 34.5117 63.6486 34.0025C61.908 31.7733 59.1903 30.3431 56.1563 30.3431C53.7841 30.3447 51.5122 31.2244 49.7575 32.8197C48.2811 34.1637 47.275 35.9189 46.8589 37.8426H39.7685C39.3993 36.3286 39.821 34.7555 40.7652 33.565C42.6897 31.1364 44.3379 32.4456 46.2638 30.2619C46.5977 29.8833 46.8321 29.5041 47.0008 29.1436C47.3325 28.4348 47.4107 27.6248 47.4793 26.8455C47.7185 24.1249 50.6471 21.7903 53.6627 22.5994C56.537 23.4347 58.9358 21.3325 59.2675 20.3041C60.7891 17.588 64.9605 17.1942 66.9477 19.4025C67.468 19.9916 68.1336 20.451 68.8758 20.7338C70.4883 21.35 72.4845 21.0591 72.9573 20.8963C74.2975 20.5953 75.6398 21.0027 76.5528 21.8041C78.5287 23.5411 77.5934 26.0014 75.6903 27.073L75.6887 27.0745C73.6137 28.2592 72.0337 30.0013 72.3448 32.3495C72.5944 34.59 71.6126 35.073 72.0073 35.9761C72.4261 36.9265 73.7937 36.9048 74.1731 35.9276C74.99 33.8191 74.6559 31.9798 74.6559 31.8089C74.6606 31.2933 74.8278 30.8714 75.2137 30.3964C75.5715 29.9589 76.1356 29.5152 76.8434 29.1136L76.845 29.112C78.0592 28.4214 79.017 27.3761 79.542 26.1699C79.8467 25.4777 80 24.7636 80 24.0464C79.9997 20.4642 76.1726 17.7511 72.4367 18.6117ZM29.9665 23.8249C34.6238 23.8249 38.5266 27.1028 39.4971 31.472C39.2971 31.6728 39.1061 31.885 38.9274 32.1102C37.8743 33.4414 37.293 35.085 37.2915 36.7398C37.2915 37.1119 37.3215 37.4797 37.3791 37.8425H36.0191C36.6047 36.5783 34.8632 35.53 34.0205 36.6447C33.7565 36.9942 33.448 37.3091 33.1038 37.5803C33.0069 37.6567 32.9255 37.7455 32.8596 37.8425H31.1382V37.7236C32.9396 37.2122 34.2633 35.5534 34.2633 33.5905C34.2633 32.9431 33.7388 32.4186 33.0915 32.4186C32.4441 32.4186 31.9196 32.9431 31.9196 33.5905C31.9196 34.6675 31.0433 35.5436 29.9665 35.5436C28.8894 35.5436 28.0132 34.6675 28.0132 33.5905C28.0132 32.5134 28.8894 31.6373 29.9665 31.6373C30.5379 31.6373 31.013 31.2283 31.1168 30.6872C31.1238 30.69 31.1313 30.6919 31.1383 30.6947C31.1383 28.7597 31.1383 29.2278 31.1383 27.3405C31.1383 26.6933 30.6137 26.1686 29.9665 26.1686C29.3191 26.1686 28.7946 26.6933 28.7946 27.3405V29.4573C26.9932 29.9689 25.6695 31.6275 25.6695 33.5905C25.6695 35.5534 26.9932 37.212 28.7946 37.7236V37.8425H27.0704C27.0043 37.7442 26.9224 37.6542 26.8246 37.5769C26.4809 37.3053 26.1727 36.9903 25.909 36.6403C25.0651 35.5209 23.3185 36.5776 23.9118 37.8423H21.179C20.5532 36.5564 20.2004 35.1142 20.2004 33.5903C20.2004 28.2058 24.5813 23.8249 29.9665 23.8249ZM72.3916 40.1862C73.4658 40.1862 74.4572 40.6829 75.1117 41.5489C75.7859 42.4408 75.9969 43.5726 75.69 44.6545C73.7656 51.4431 68.4736 57.3831 60.7766 61.4071H22.6251C21.9798 61.4071 21.4532 61.932 21.4532 62.579C21.4532 63.2243 21.9799 63.7509 22.6251 63.7509H59.7847C59.227 66.7688 56.5177 69.0926 53.3541 69.0926H25.6463C22.1676 69.0926 19.2373 66.2834 19.1142 62.8298C19.1045 62.5659 19.1435 62.247 18.8818 61.8859C18.7871 61.7548 18.6363 61.6206 18.4717 61.5356C10.6284 57.5037 5.24152 51.4998 3.30309 44.6293C3.00122 43.5589 3.21231 42.4375 3.88262 41.552C4.53949 40.6842 5.53309 40.1865 6.60887 40.1865C9.8712 40.1862 69.1092 40.1862 72.3916 40.1862ZM47.396 22.1308C47.245 21.4464 46.7878 21.4972 46.0432 20.5303C45.6482 20.0177 44.9122 19.9224 44.3994 20.3175C43.8866 20.7119 43.7915 21.4485 44.1866 21.9611C44.5608 22.4466 45.0121 22.9069 45.5357 23.3114C45.7369 23.4667 45.9725 23.5458 46.2086 23.5544C45.7538 24.265 45.4219 25.0406 45.2464 25.9231C39.9876 22.942 38.7608 16.0244 42.386 11.4089L46.3163 15.3391C45.9614 15.9722 45.7718 16.6885 45.7718 17.4341C45.7718 18.5819 46.2188 19.661 47.0302 20.4725C47.4882 20.9302 48.2299 20.93 48.6877 20.4725C49.1453 20.0147 49.1453 19.2728 48.6877 18.8152C48.3188 18.4464 48.1157 17.9558 48.1157 17.4341C48.1157 17.3413 48.1244 17.25 48.1371 17.1597L51.1772 20.1997C49.8324 20.4488 48.5411 21.0739 47.396 22.1308Z" fill="#E5CB9F"/>
</svg>
