<svg width="70" height="70" viewBox="0 0 70 70" fill="none" xmlns="http://www.w3.org/2000/svg">
<g clip-path="url(#clip0)">
<path d="M49.743 47.811C49.2101 47.2771 48.3431 47.2777 47.8084 47.8099C47.8054 47.8129 47.7931 47.8252 47.79 47.8285C47.2613 48.3648 47.2727 49.2207 47.8073 49.7513C48.0723 50.0143 48.4194 50.1448 48.7672 50.1448C49.1212 50.1448 49.4757 50.0096 49.7443 49.7409C50.2777 49.2074 50.2759 48.3451 49.743 47.811Z" fill="#E5CB9F"/>
<path d="M55.6678 32.2372C55.0603 27.6671 53.0119 23.5241 49.7439 20.256C45.8058 16.318 40.5702 14.1494 35.0014 14.1494C29.4324 14.1494 24.1968 16.318 20.2588 20.256C16.3208 24.1936 14.1522 29.4292 14.1522 34.9982C14.1522 40.5672 16.3208 45.8028 20.2587 49.7407C24.281 53.763 29.6208 55.8546 35.0141 55.8546C38.643 55.8546 42.2961 54.9076 45.5883 52.9647C46.2385 52.5808 46.4546 51.7427 46.0709 51.0926C45.6872 50.4424 44.8489 50.2263 44.1987 50.61C37.0882 54.8066 28.0387 53.654 22.1923 47.8074C18.7708 44.386 16.8865 39.837 16.8865 34.9985C16.8865 30.16 18.7708 25.6108 22.1923 22.1896C25.6137 18.768 30.1627 16.8838 35.0014 16.8838C39.84 16.8838 44.389 18.7679 47.8104 22.1896C53.5004 27.8794 54.7492 36.7606 50.8471 43.7872C50.4805 44.4472 50.7186 45.2795 51.3786 45.646C52.0388 46.013 52.8709 45.7747 53.2375 45.1144C55.3927 41.2337 56.2558 36.6604 55.6678 32.2372Z" fill="#E5CB9F"/>
<path d="M2.33745 26.317C2.08315 26.0613 1.73042 25.9163 1.37085 25.9163C1.00991 25.9163 0.658545 26.0613 0.404248 26.317C0.148584 26.5699 0.00366211 26.9226 0.00366211 27.2834C0.00366211 27.6432 0.148584 27.9944 0.404248 28.25C0.658545 28.5045 1.00991 28.6506 1.37085 28.6506C1.73042 28.6506 2.08179 28.5045 2.33745 28.25C2.59175 27.9944 2.73804 27.6432 2.73804 27.2834C2.73804 26.9224 2.59175 26.5696 2.33745 26.317Z" fill="#E5CB9F"/>
<path d="M1.37036 0C0.615264 0 0.00317383 0.612227 0.00317383 1.36719V21.4594C0.00317383 22.2143 0.615264 22.8266 1.37036 22.8266C2.12546 22.8266 2.73755 22.2143 2.73755 21.4594V2.83158C7.36903 3.49699 10.9403 7.49137 10.9403 12.3041V33.1807L7.02177 36.6734C6.73028 36.9332 6.56376 37.3052 6.56431 37.6957L6.5654 38.6147V65.348C6.5654 66.4039 5.7064 67.2626 4.65079 67.2626C3.59573 67.2626 2.73755 66.4044 2.73755 65.3495V32.6828C2.73755 31.9278 2.12546 31.3156 1.37036 31.3156C0.615264 31.3156 0.00317383 31.9278 0.00317383 32.6828V65.3491C0.00317383 67.9116 2.088 69.9964 4.65065 69.9964C7.21399 69.9964 9.2995 67.9109 9.2995 65.3476V38.6127L9.29923 38.3059L13.2169 34.8138C13.508 34.5544 13.6744 34.1831 13.6744 33.7932V12.3041C13.6744 5.51961 8.15476 0 1.37036 0Z" fill="#E5CB9F"/>
<path d="M49.643 11.6595C45.2626 8.90581 40.1994 7.45044 35.0014 7.45044C27.7054 7.45044 20.8291 10.2744 15.6397 15.402C15.1027 15.9327 15.0975 16.7982 15.6282 17.3353C15.8959 17.6062 16.2484 17.7417 16.601 17.7417C16.9481 17.7417 17.2955 17.6103 17.5618 17.347C22.236 12.7283 28.4297 10.1847 35.0017 10.1847C39.6842 10.1847 44.244 11.4953 48.1881 13.9744C48.8272 14.3765 49.6713 14.1837 50.073 13.5445C50.4748 12.9051 50.2823 12.0611 49.643 11.6595Z" fill="#E5CB9F"/>
<path d="M39.55 21.956C36.0926 21.8614 32.881 23.5198 30.9631 26.4002C30.2706 27.4399 29.215 28.2027 27.9906 28.5476C24.3972 29.56 21.7078 32.4623 20.9721 36.1216C20.4418 38.759 20.9705 41.4312 22.4607 43.6457C23.9148 45.8068 26.1202 47.2639 28.6703 47.7484C29.6971 47.9435 30.7241 48.0399 31.7443 48.0399C35.6143 48.0399 39.3779 46.652 42.5834 43.9981C46.5576 40.7075 49.2276 35.8034 49.2272 31.7945C49.2269 26.5202 44.8857 22.1065 39.55 21.956ZM40.8398 41.892C38.4263 43.8902 34.4438 46.062 29.1808 45.0623C27.3536 44.7151 25.7726 43.6698 24.7293 42.1194C23.6497 40.5154 23.2676 38.5766 23.6527 36.6606C24.1853 34.0124 26.1315 31.9121 28.7321 31.1793C30.5844 30.6576 32.185 29.4984 33.2389 27.9154C34.5926 25.8827 36.8327 24.6861 39.2634 24.6861C39.333 24.6861 39.403 24.6871 39.4727 24.689C43.3435 24.7982 46.4927 27.9858 46.4931 31.7948C46.4934 34.9838 44.1686 39.1359 40.8398 41.892Z" fill="#E5CB9F"/>
<path d="M41.5308 29.5342C40.7757 29.5342 40.1636 30.1464 40.1636 30.9014V34.5434C40.1636 35.2984 40.7757 35.9106 41.5308 35.9106C42.2859 35.9106 42.8979 35.2984 42.8979 34.5434V30.9014C42.8979 30.1464 42.2859 29.5342 41.5308 29.5342Z" fill="#E5CB9F"/>
<path d="M29.6539 34.178C28.8988 34.178 28.2867 34.7902 28.2867 35.5452V41.6834C28.2867 42.4384 28.8988 43.0506 29.6539 43.0506C30.409 43.0506 31.0211 42.4384 31.0211 41.6834V35.5452C31.0211 34.7902 30.409 34.178 29.6539 34.178Z" fill="#E5CB9F"/>
<path d="M35.9493 29.062C35.1942 29.062 34.5822 29.6742 34.5822 30.4292V38.1479C34.5822 38.9029 35.1942 39.5151 35.9493 39.5151C36.7044 39.5151 37.3165 38.9029 37.3165 38.1479V30.4292C37.3165 29.6741 36.7044 29.062 35.9493 29.062Z" fill="#E5CB9F"/>
<path d="M68.6295 0C67.8744 0 67.2623 0.612227 67.2623 1.36719V16.1301H65.0782V1.38455C65.0782 0.62959 64.4662 0.0173633 63.7111 0.0173633C62.956 0.0173633 62.3439 0.62959 62.3439 1.38455V16.1301H60.1577V1.38455C60.1577 0.62959 59.5456 0.0173633 58.7905 0.0173633C58.0354 0.0173633 57.4234 0.62959 57.4234 1.38455V16.1301H55.2372V1.36719C55.2372 0.612227 54.6251 0 53.87 0C53.1149 0 52.5029 0.612227 52.5029 1.36719V18.4846C52.5029 20.665 53.4016 22.7853 54.9686 24.3016C56.0063 25.3058 56.6013 26.7096 56.6013 28.1537V48.5751C56.1378 48.5434 55.6697 48.7472 55.3849 49.1563C54.5475 50.3588 53.5928 51.4985 52.5471 52.5442C47.8604 57.231 41.6289 59.8121 35.0007 59.8121C28.3724 59.8121 22.141 57.231 17.454 52.5442C16.583 51.6733 15.7725 50.734 15.0447 49.7522C14.595 49.1456 13.7387 49.0186 13.1324 49.4681C12.5257 49.9178 12.3986 50.7741 12.8483 51.3804C13.6559 52.4699 14.5549 53.5119 15.5207 54.4775C20.7239 59.6807 27.6422 62.5464 35.0007 62.5464C42.3591 62.5464 49.2772 59.6807 54.4805 54.4775C55.2326 53.7254 55.9416 52.9286 56.6011 52.0976V65.352C56.6011 67.915 58.6862 70.0001 61.2493 70.0001C63.8124 70.0001 65.8975 67.915 65.8975 65.352V28.1535C65.8975 26.7096 66.4926 25.3055 67.5302 24.3015C69.0971 22.7853 69.9959 20.6649 69.9959 18.4845V1.36719C69.9967 0.612227 69.3846 0 68.6295 0ZM65.6298 22.3366C64.0627 23.8528 63.1639 25.9731 63.1639 28.1535V65.352C63.1639 66.4074 62.3053 67.2659 61.25 67.2659C60.1945 67.2659 59.3361 66.4073 59.3361 65.352V28.1535C59.3361 25.9731 58.4373 23.853 56.8705 22.3366C55.924 21.4208 55.3474 20.1723 55.2531 18.8645H67.2473C67.1527 20.1723 66.576 21.4207 65.6298 22.3366Z" fill="#E5CB9F"/>
</g>
<defs>
<clipPath id="clip0">
<rect width="70" height="70" fill="white"/>
</clipPath>
</defs>
</svg>
