<svg width="70" height="70" viewBox="0 0 70 70" fill="none" xmlns="http://www.w3.org/2000/svg">
<g clip-path="url(#clip0)">
<path d="M45.2882 63.8477H41.9981C39.835 63.8477 38.0752 62.0867 38.0752 59.9223V49.1835C38.0752 44.782 38.615 41.866 39.8256 39.7288C40.9489 37.7457 42.6666 36.4163 44.8414 34.7333L45.3354 34.3504C50.7321 30.1599 53.731 23.5836 53.3576 16.7591L53.3564 16.7415L52.219 0.951699C52.1805 0.415352 51.7341 0 51.1962 0H26.2325C25.6661 0 25.2071 0.459102 25.2071 1.02539C25.2071 1.59168 25.6661 2.05078 26.2325 2.05078H50.2421L51.3101 16.8792C51.4663 19.7542 50.9582 22.5799 49.8765 25.1601C48.6355 23.9296 46.3949 22.3285 43.1378 22.3285C42.7459 22.3285 42.3362 22.3623 41.9201 22.4288C41.3608 22.5184 40.9802 23.0442 41.0698 23.6035C41.1593 24.1626 41.6842 24.5427 42.2443 24.4539C42.5536 24.4044 42.8541 24.3793 43.1378 24.3793C46.1981 24.3793 48.1564 26.251 48.9093 27.1332C47.702 29.2718 46.0717 31.182 44.0776 32.7306L43.5862 33.1114C43.3584 33.2876 43.1348 33.4608 42.9149 33.6321C42.8874 33.6473 42.8602 33.6633 42.8337 33.6812C40.2668 35.4167 37.4114 36.4122 35 36.4122C32.5345 36.4122 29.626 35.3791 27.0155 33.5779C26.8181 33.4242 26.6175 33.2689 26.4138 33.1112L25.9223 32.7305C24.5413 31.658 23.335 30.4121 22.3225 29.0371C22.7721 29.1724 23.2597 29.3054 23.7773 29.4264C25.2756 29.7767 26.6886 29.9519 28.0031 29.9519C28.9319 29.9519 29.8115 29.8644 30.6376 29.6892C32.3723 29.3212 34.194 28.2747 36.1227 27.1667C36.8797 26.7318 37.6627 26.282 38.4326 25.881C38.9348 25.6195 39.13 25.0003 38.8683 24.4979C38.6065 23.9956 37.9874 23.8007 37.4853 24.0621C36.6778 24.4826 35.8761 24.9431 35.1012 25.3884C35.0673 25.4079 35.0336 25.4272 34.9997 25.4466L34.8981 25.3884C32.2794 23.8839 29.5713 22.3284 26.8619 22.3284C23.612 22.3284 21.3553 23.9557 20.1258 25.166C19.0423 22.5843 18.5336 19.7565 18.6896 16.8797L19.7579 2.05078H21.8155C22.3819 2.05078 22.8409 1.59168 22.8409 1.02539C22.8409 0.459102 22.3819 0 21.8155 0H18.8037C18.266 0 17.8196 0.415352 17.7811 0.951699L16.6439 16.7415L16.6426 16.7591C16.2692 23.5836 19.2682 30.1597 24.6649 34.3504L25.1588 34.7333C27.3336 36.4163 29.0515 37.7456 30.1746 39.7287C31.3851 41.8659 31.925 44.7818 31.925 49.1833V59.9222C31.925 62.0867 30.1652 63.8475 28.0022 63.8475H24.712C22.3601 63.8475 20.4465 65.7617 20.4465 68.1146C20.4465 69.1541 21.292 69.9999 22.3312 69.9999H26.3238C26.8902 69.9999 27.3492 69.5408 27.3492 68.9745C27.3492 68.4082 26.8902 67.9491 26.3238 67.9491H22.5035C22.5884 66.8041 23.5465 65.8983 24.712 65.8983H28.0022C31.2961 65.8983 33.9758 63.2174 33.9758 59.9222V49.1833C33.9758 43.5516 33.062 40.3167 31.4799 37.9572C32.6806 38.289 33.8658 38.4631 35.0003 38.4631C36.133 38.4631 37.3194 38.2877 38.522 37.9549C36.9388 40.3145 36.0244 43.5497 36.0244 49.1835V59.9223C36.0244 63.2177 38.7041 65.8984 41.9981 65.8984H45.2882C46.4537 65.8984 47.4119 66.8042 47.4968 67.9492H30.7617C30.1953 67.9492 29.7363 68.4083 29.7363 68.9746C29.7363 69.5409 30.1953 70 30.7617 70H47.669C48.7084 70 49.5537 69.1543 49.5537 68.1148C49.5537 65.7619 47.6402 63.8477 45.2882 63.8477ZM32.9045 26.6116C31.9398 27.1128 31.0313 27.5096 30.2122 27.6834C27.0174 28.3611 23.4083 27.3027 21.5634 26.6223C22.5256 25.6702 24.3016 24.3796 26.8622 24.3796C28.7318 24.3794 30.8291 25.4388 32.9045 26.6116Z" fill="#E5CB9F"/>
</g>
<defs>
<clipPath id="clip0">
<rect width="70" height="70" fill="white"/>
</clipPath>
</defs>
</svg>
